# xmcd
#
# Track frame offsets:
#	150
#	15547
#	37442
#	61795
#	83154
#	98445
#	115632
#	136130
#	154792
#	172945
#	191200
#	205925
#
# Disc length: 3033 seconds
#
# Revision: 1
# Processed by: cddbd v1.5.1PL0 Copyright (c) Steve Scherf et al.
# Submitted via: audiograbber 1.83.01
#
DISCID=940bd70c
DTITLE=Carol Ames - Shades of Indigo
DYEAR=2004
DGENRE=Country
TTITLE0=nothin' but a heartache
TTITLE1=underneath the texas sky
TTITLE2=mercury
TTITLE3=why does love
TTITLE4=so into you
TTITLE5=west virginia
TTITLE6=the hedonist
TTITLE7=shades of indigo
TTITLE8=everytime u smile
TTITLE9=cast away
TTITLE10=daylight somewhere
TTITLE11=any luck at all
EXTD=
EXTT0=
EXTT1=
EXTT2=
EXTT3=
EXTT4=
EXTT5=
EXTT6=
EXTT7=
EXTT8=
EXTT9=
EXTT10=
EXTT11=
PLAYORDER=
